<svg width="1024" height="1024" version="1.1" xmlns="http://www.w3.org/2000/svg" desc="Created with imagetracer.js version 1.2.6" ><path fill="rgb(21,62,41)" stroke="rgb(21,62,41)" stroke-width="1" opacity="0.28627450980392155" d="M 511.5 181 L 530.5 181 L 537 184 L 538 189.5 L 537 192 L 518.5 199 L 509.5 200 L 509.5 199 L 513.5 199 L 529.5 194 L 537 189.5 Q 537.8 184.8 534.5 184 L 530.5 182 L 511.5 182 L 511.5 181 Z " /><path fill="rgb(21,62,41)" stroke="rgb(21,62,41)" stroke-width="1" opacity="0.28627450980392155" d="M 569.5 181 L 582 181.5 L 563.5 183 L 561 185.5 Q 560.3 191.7 564.5 193 L 620.5 207 L 646.5 217 L 687.5 242 L 714 265.5 L 713.5 267 L 711.5 264 L 688.5 244 Q 669.6 229.9 647.5 219 L 616.5 207 L 562 194 Q 559.3 190.1 560 183 L 569.5 181 Z " /><path fill="rgb(21,62,41)" stroke="rgb(21,62,41)" stroke-width="1" opacity="0.28627450980392155" d="M 502.5 182 L 509 182.5 L 502.5 183 L 502.5 182 Z " /><path fill="rgb(21,62,41)" stroke="rgb(21,62,41)" stroke-width="1" opacity="0.28627450980392155" d="M 585.5 182 L 595 182.5 L 585.5 183 L 585.5 182 Z " /><path fill="rgb(21,62,41)" stroke="rgb(21,62,41)" stroke-width="1" opacity="0.28627450980392155" d="M 494.5 183 L 500 183.5 L 494.5 184 L 494.5 183 Z " /><path fill="rgb(21,62,41)" stroke="rgb(21,62,41)" stroke-width="1" opacity="0.28627450980392155" d="M 597.5 183 L 602 183.5 L 597.5 184 L 597.5 183 Z " /><path fill="rgb(21,62,41)" stroke="rgb(21,62,41)" stroke-width="1" opacity="0.28627450980392155" d="M 484.5 184 L 491 184.5 L 480.5 186 L 480.5 185 L 484.5 184 Z " /><path fill="rgb(21,62,41)" stroke="rgb(21,62,41)" stroke-width="1" opacity="0.28627450980392155" d="M 604.5 184 Q 611.3 183.3 615 185.5 L 610.5 186 Q 609.3 183.8 604.5 185 L 604.5 184 Z " /><path fill="rgb(21,62,41)" stroke="rgb(21,62,41)" stroke-width="1" opacity="0.28627450980392155" d="M 476.5 186 L 479 186.5 L 476.5 187 L 476.5 186 Z " /><path fill="rgb(21,62,41)" stroke="rgb(21,62,41)" stroke-width="1" opacity="0.28627450980392155" d="M 616.5 186 L 619 186.5 L 616.5 187 L 616.5 186 Z " /><path fill="rgb(21,62,41)" stroke="rgb(21,62,41)" stroke-width="1" opacity="0.28627450980392155" d="M 472.5 187 L 475 187.5 L 472.5 188 L 472.5 187 Z " /><path fill="rgb(21,62,41)" stroke="rgb(21,62,41)" stroke-width="1" opacity="0.28627450980392155" d="M 620.5 187 L 623 187.5 L 620.5 188 L 620.5 187 Z " /><path fill="rgb(21,62,41)" stroke="rgb(21,62,41)" stroke-width="1" opacity="0.28627450980392155" d="M 465.5 188 L 470 188.5 L 459.5 191 L 459.5 190 L 465.5 188 Z " /><path fill="rgb(21,62,41)" stroke="rgb(21,62,41)" stroke-width="1" opacity="0.28627450980392155" d="M 625.5 188 L 629.5 188 L 640 191.5 L 637.5 192 Q 633.2 188.8 625.5 189 L 625.5 188 Z " /><path fill="rgb(21,62,41)" stroke="rgb(21,62,41)" stroke-width="1" opacity="0.28627450980392155" d="M 451.5 192 L 455 192.5 L 443.5 196 L 443.5 195 L 451.5 192 Z " /><path fill="rgb(21,62,41)" stroke="rgb(21,62,41)" stroke-width="1" opacity="0.28627450980392155" d="M 641.5 192 L 644.5 192 L 652 195.5 L 650.5 196 L 641.5 193 L 641.5 192 Z " /><path fill="rgb(21,62,41)" stroke="rgb(21,62,41)" stroke-width="1" opacity="0.28627450980392155" d="M 438.5 196 L 442 196.5 L 431.5 200 L 431.5 199 L 438.5 196 Z " /><path fill="rgb(21,62,41)" stroke="rgb(21,62,41)" stroke-width="1" opacity="0.28627450980392155" d="M 653.5 196 L 660 198.5 L 658.5 199 L 653.5 197 L 653.5 196 Z " /><path fill="rgb(21,62,41)" stroke="rgb(21,62,41)" stroke-width="1" opacity="0.28627450980392155" d="M 661.5 199 L 672 203.5 L 670.5 203 L 661.5 200 L 661.5 199 Z " /><path fill="rgb(21,62,41)" stroke="rgb(21,62,41)" stroke-width="1" opacity="0.28627450980392155" d="M 427.5 200 L 430 200.5 L 423.5 203 L 423.5 202 L 427.5 200 Z " /><path fill="rgb(21,62,41)" stroke="rgb(21,62,41)" stroke-width="1" opacity="0.28627450980392155" d="M 505.5 200 L 508 200.5 L 498.5 204 L 494.5 204 L 485.5 208 L 481.5 208 L 452.5 220 L 417.5 240 L 396 256 L 394.5 259 Q 381.5 267.5 372 279.5 L 365.5 288 Q 363.3 287.3 364 289.5 L 363 292 L 360 293.5 L 354 304 Q 351 302.8 352 306.5 Q 347 309.8 346 316 L 344 315.5 Q 363.6 283.1 391.5 259 Q 437.1 218.1 505.5 200 Z " /><path fill="rgb(21,62,41)" stroke="rgb(21,62,41)" stroke-width="1" opacity="0.28627450980392155" d="M 420.5 203 L 422 203.5 L 412.5 208 L 413.5 206 L 420.5 203 Z " /><path fill="rgb(21,62,41)" stroke="rgb(21,62,41)" stroke-width="1" opacity="0.28627450980392155" d="M 673.5 204 L 681 207.5 L 679.5 208 L 673.5 205 L 673.5 204 Z " /><path fill="rgb(21,62,41)" stroke="rgb(21,62,41)" stroke-width="1" opacity="0.28627450980392155" d="M 409.5 208 L 411 208.5 L 396.5 216 L 397.5 214 L 409.5 208 Z " /><path fill="rgb(21,62,41)" stroke="rgb(21,62,41)" stroke-width="1" opacity="0.28627450980392155" d="M 682.5 208 L 689 211.5 L 687.5 211 L 682.5 209 L 682.5 208 Z " /><path fill="rgb(21,62,41)" stroke="rgb(21,62,41)" stroke-width="1" opacity="0.28627450980392155" d="M 690.5 212 L 706.5 220 L 717 227.5 L 714.5 226 L 690.5 213 L 690.5 212 Z " /><path fill="rgb(21,62,41)" stroke="rgb(21,62,41)" stroke-width="1" opacity="0.28627450980392155" d="M 393.5 216 L 395 216.5 L 384.5 223 L 384 221 L 393.5 216 Z " /><path fill="rgb(21,62,41)" stroke="rgb(21,62,41)" stroke-width="1" opacity="0.28627450980392155" d="M 382.5 223 L 381.5 225 Q 347.3 245.8 321 274.5 Q 284.6 314.6 263 369.5 L 255 393.5 L 247 430.5 L 246 444.5 L 245 445.5 L 245 457.5 L 244 458.5 L 244 497.5 L 245 502.5 L 244 502.5 L 242 494.5 L 242 461.5 L 243 460.5 L 244 439.5 L 245 438.5 L 244 436.5 L 253 393.5 L 256 388.5 L 256 384.5 Q 260 378.5 261 369.5 L 263 367.5 L 266 357.5 L 268 355.5 L 276 336.5 L 298.5 300 Q 300.8 300.8 300 298.5 L 314.5 280 Q 316.8 280.8 316 278.5 L 321.5 272 L 324 270.5 L 325.5 268 L 328 266.5 L 329.5 264 L 332 262.5 L 333.5 260 L 340 256 L 342.5 252 L 345.5 250 Q 362.2 234.7 382.5 223 Z " /><path fill="rgb(21,62,41)" stroke="rgb(21,62,41)" stroke-width="1" opacity="0.28627450980392155" d="M 718.5 228 L 728 234.5 L 725.5 233 L 719.5 230 L 718.5 228 Z " /><path fill="rgb(21,62,41)" stroke="rgb(21,62,41)" stroke-width="1" opacity="0.28627450980392155" d="M 616.5 234 L 624 234.5 L 616.5 235 L 616.5 234 Z " /><path fill="rgb(21,62,41)" stroke="rgb(21,62,41)" stroke-width="1" opacity="0.28627450980392155" d="M 611.5 235 L 614 235.5 L 611.5 236 L 611.5 235 Z " /><path fill="rgb(21,62,41)" stroke="rgb(21,62,41)" stroke-width="1" opacity="0.28627450980392155" d="M 625.5 235 L 628 235.5 L 625.5 236 L 625.5 235 Z " /><path fill="rgb(21,62,41)" stroke="rgb(21,62,41)" stroke-width="1" opacity="0.28627450980392155" d="M 729.5 235 L 748 249 L 749 251.5 L 742.5 246 L 731.5 238 L 729.5 235 Z " /><path fill="rgb(21,62,41)" stroke="rgb(21,62,41)" stroke-width="1" opacity="0.28627450980392155" d="M 607.5 236 L 610 236.5 L 603.5 239 L 591 247 L 585 255.5 L 582 262.5 Q 579.2 271.2 581 284.5 Q 583.8 299.2 593.5 307 L 609.5 315 L 621.5 316 Q 637.5 312.5 647 302.5 Q 658.3 291.8 658 269.5 L 653 255.5 L 646 246 L 634.5 238 L 629 236.5 L 632.5 236 Q 643.2 240.8 650 249.5 L 655 256.5 L 658 264.5 L 659 278.5 L 656 290.5 L 652 298.5 L 642.5 308 L 628.5 316 L 611.5 317 L 594.5 310 L 587 302.5 L 580 288.5 L 579 273.5 L 580 272.5 L 581 260.5 Q 584.8 249.8 593.5 244 L 607.5 236 Z " /><path fill="rgb(21,62,41)" stroke="rgb(21,62,41)" stroke-width="1" opacity="0.28627450980392155" d="M 750.5 252 L 771 270.5 L 772.5 273 L 775 274.5 Q 803.1 304.9 824 342.5 L 836 367.5 L 836 370.5 L 851 405.5 L 852 420 L 849.5 420 L 829 406 L 827.5 403 L 807 386.5 L 810.5 389 L 837.5 410 L 851 418 L 850 407.5 L 841 386.5 L 839 378.5 Q 829.9 353.6 817 332.5 L 787 289.5 L 758.5 260 L 750.5 252 Z " /><path fill="rgb(21,62,41)" stroke="rgb(21,62,41)" stroke-width="1" opacity="0.28627450980392155" d="M 716.5 268 L 730 282.5 L 728 283 L 718.5 271 Q 716.3 271.8 717 269.5 L 716.5 268 Z " /><path fill="rgb(21,62,41)" stroke="rgb(21,62,41)" stroke-width="1" opacity="0.28627450980392155" d="M 463.5 276 L 490.5 276 L 496 277.5 L 490.5 278 L 489.5 277 L 464.5 277 L 436.5 285 L 405.5 299 Q 386.7 310.7 371 325.5 Q 371.8 327.8 369.5 327 L 356 341.5 L 353 347.5 L 355.5 349 Q 380.4 339.4 408.5 333 L 425.5 330 L 433.5 330 L 434.5 329 L 459.5 328 L 460.5 329 L 471.5 329 L 472.5 330 L 483.5 331 L 501.5 336 L 506 338.5 L 506 340.5 L 498 350.5 L 530.5 351 L 533.5 352 L 558 374.5 L 561 382.5 L 561 389.5 L 560 394.5 L 561 395.5 L 561 407.5 L 560 412.5 L 557.5 416 L 554.5 417 L 413.5 417 L 408 420.5 L 406.5 423 Q 404.3 422.3 405 424.5 L 406 428.5 L 405 429.5 L 411.5 436 L 414.5 437 L 460.5 437 L 461.5 438 L 462.5 437 L 564.5 437 L 591.5 413 L 592 414.5 L 563.5 439 L 419.5 439 L 415.5 438 L 413.5 438 L 405 432.5 L 404 423.5 L 410.5 416 L 440.5 416 L 441.5 415 L 555.5 415 L 558 412.5 L 560 399.5 L 559 398.5 L 559 390.5 Q 561.8 388.8 560 382.5 L 554.5 372 L 531.5 353 L 528.5 352 L 512.5 352 L 511.5 353 L 503.5 353 Q 502.3 350.7 497.5 352 L 496 350.5 L 504 339.5 L 496.5 336 L 475.5 331 L 471.5 331 L 447.5 330 L 446.5 331 L 434.5 331 L 433.5 332 L 431.5 331 L 429.5 331 L 390.5 339 L 378.5 344 L 374.5 344 L 368.5 347 L 353.5 351 Q 350.8 349.8 352 344.5 L 357 337 L 360 335.5 L 362.5 332 Q 364.8 332.8 364 330.5 L 368 328 L 370.5 324 Q 372.8 324.8 372 322.5 L 395.5 304 L 408.5 296 L 435.5 284 L 439.5 284 L 442.5 282 L 463.5 276 Z " /><path fill="rgb(21,62,41)" stroke="rgb(21,62,41)" stroke-width="1" opacity="0.28627450980392155" d="M 497.5 278 L 500 278.5 L 497.5 279 L 497.5 278 Z " /><path fill="rgb(21,62,41)" stroke="rgb(21,62,41)" stroke-width="1" opacity="0.28627450980392155" d="M 501.5 279 L 504 279.5 L 501.5 280 L 501.5 279 Z " /><path fill="rgb(21,62,41)" stroke="rgb(21,62,41)" stroke-width="1" opacity="0.28627450980392155" d="M 505.5 280 L 509.5 280 L 516 282.5 L 513.5 283 L 505.5 281 L 505.5 280 Z " /><path fill="rgb(21,62,41)" stroke="rgb(21,62,41)" stroke-width="1" opacity="0.28627450980392155" d="M 517.5 283 L 520 283.5 L 517.5 284 L 517.5 283 Z " /><path fill="rgb(21,62,41)" stroke="rgb(21,62,41)" stroke-width="1" opacity="0.28627450980392155" d="M 521.5 284 L 525.5 284 L 534 287.5 L 532.5 288 Q 528.5 285 521.5 285 L 521.5 284 Z " /><path fill="rgb(21,62,41)" stroke="rgb(21,62,41)" stroke-width="1" opacity="0.28627450980392155" d="M 731.5 284 L 736 289.5 L 731 285.5 L 731.5 284 Z " /><path fill="rgb(21,62,41)" stroke="rgb(21,62,41)" stroke-width="1" opacity="0.28627450980392155" d="M 535.5 288 Q 541.3 288.3 544 291.5 L 542.5 291 L 535.5 289 L 535.5 288 Z " /><path fill="rgb(21,62,41)" stroke="rgb(21,62,41)" stroke-width="1" opacity="0.28627450980392155" d="M 737.5 291 L 746 301.5 L 744.5 302 L 737 292.5 L 737.5 291 Z " /><path fill="rgb(21,62,41)" stroke="rgb(21,62,41)" stroke-width="1" opacity="0.28627450980392155" d="M 545.5 292 L 564 302.5 Q 563.3 304.8 565.5 304 L 568 305 L 569.5 308 L 572 309.5 L 573.5 312 L 576 313.5 L 577.5 316 L 580 317.5 Q 589.6 327.9 596 341.5 L 595 341.5 Q 583.6 319.9 565.5 305 Q 557 297.5 545.5 293 L 545.5 292 Z " /><path fill="rgb(21,62,41)" stroke="rgb(21,62,41)" stroke-width="1" opacity="0.28627450980392155" d="M 745.5 303 L 746.5 305 L 745.5 303 Z " /><path fill="rgb(21,62,41)" stroke="rgb(21,62,41)" stroke-width="1" opacity="0.28627450980392155" d="M 748.5 307 L 751 310.5 L 749 309.5 L 748.5 307 Z " /><path fill="rgb(21,62,41)" stroke="rgb(21,62,41)" stroke-width="1" opacity="0.28627450980392155" d="M 751.5 312 L 754 313.5 L 752.5 314 L 751.5 312 Z " /><path fill="rgb(21,62,41)" stroke="rgb(21,62,41)" stroke-width="1" opacity="0.28627450980392155" d="M 722.5 314 L 727 316.5 L 728 324.5 L 727 324.5 Q 727.7 318.3 724.5 316 L 721.5 316 L 717 320.5 L 697 352.5 Q 684.1 371.6 667.5 387 L 655.5 398 Q 654.1 400.6 649.5 400 L 623.5 372 Q 620.5 371.5 622 378.5 L 621 381.5 L 622 384.5 L 619 400.5 L 613 415 L 610 416.5 L 610.5 418 L 608 419.5 Q 610.2 420.8 607.5 422 L 605 423.5 L 606 424.5 L 601.5 429 Q 599.8 426.3 598 430.5 L 601 434.5 L 598 432.5 L 597 430.5 Q 609.5 420.5 616 404.5 Q 616.4 395.9 620 390.5 L 620 370.5 L 621.5 369 L 628 374.5 Q 627.3 376.8 629.5 376 L 633.5 381 Q 635.8 380.3 635 382.5 L 649.5 399 L 654.5 397 L 678 374.5 L 680 371.5 Q 698 353.1 709 329 Q 711.7 330.1 711 327.5 L 720.5 315 L 722.5 314 Z " /><path fill="rgb(21,62,41)" stroke="rgb(21,62,41)" stroke-width="1" opacity="0.28627450980392155" d="M 754.5 316 L 756.5 319 L 754 317.5 L 754.5 316 Z " /><path fill="rgb(21,62,41)" stroke="rgb(21,62,41)" stroke-width="1" opacity="0.28627450980392155" d="M 343.5 317 L 344 318.5 L 332 340.5 L 325.5 356 L 325 354.5 L 335 331.5 L 343.5 317 Z " /><path fill="rgb(21,62,41)" stroke="rgb(21,62,41)" stroke-width="1" opacity="0.28627450980392155" d="M 757.5 320 L 759 323.5 L 757 322.5 L 757.5 320 Z " /><path fill="rgb(21,62,41)" stroke="rgb(21,62,41)" stroke-width="1" opacity="0.28627450980392155" d="M 759.5 325 L 762 329.5 L 761 329.5 L 759.5 325 Z " /><path fill="rgb(21,62,41)" stroke="rgb(21,62,41)" stroke-width="1" opacity="0.28627450980392155" d="M 762.5 331 L 764 333.5 L 763 333.5 L 762.5 331 Z " /><path fill="rgb(21,62,41)" stroke="rgb(21,62,41)" stroke-width="1" opacity="0.28627450980392155" d="M 727.5 334 L 728 346.5 L 725.5 360 L 725 355.5 L 726 354.5 L 727.5 334 Z " /><path fill="rgb(21,62,41)" stroke="rgb(21,62,41)" stroke-width="1" opacity="0.28627450980392155" d="M 765.5 339 L 766.5 341 L 765.5 339 Z " /><path fill="rgb(21,62,41)" stroke="rgb(21,62,41)" stroke-width="1" opacity="0.28627450980392155" d="M 767.5 342 L 771 348.5 L 769 347.5 L 767.5 342 Z " /><path fill="rgb(21,62,41)" stroke="rgb(21,62,41)" stroke-width="1" opacity="0.28627450980392155" d="M 596.5 343 Q 599.8 345.8 600 351.5 L 599 351.5 L 596.5 343 Z " /><path fill="rgb(21,62,41)" stroke="rgb(21,62,41)" stroke-width="1" opacity="0.28627450980392155" d="M 770.5 350 L 774 356.5 L 772 357 L 770.5 350 Z " /><path fill="rgb(21,62,41)" stroke="rgb(21,62,41)" stroke-width="1" opacity="0.28627450980392155" d="M 600.5 353 L 601 355.5 L 600 355.5 L 600.5 353 Z " /><path fill="rgb(21,62,41)" stroke="rgb(21,62,41)" stroke-width="1" opacity="0.28627450980392155" d="M 324.5 357 L 325 358.5 L 320.5 370 L 320 368.5 L 324.5 357 Z " /><path fill="rgb(21,62,41)" stroke="rgb(21,62,41)" stroke-width="1" opacity="0.28627450980392155" d="M 601.5 357 L 603 362.5 L 603 382.5 L 602 383.5 L 602 390.5 L 600 400.5 L 593.5 412 L 592 411.5 L 600 395.5 L 601 383.5 L 602 382.5 L 602 362.5 Q 599.6 361.1 601.5 357 Z " /><path fill="rgb(21,62,41)" stroke="rgb(21,62,41)" stroke-width="1" opacity="0.28627450980392155" d="M 773.5 358 L 803 381.5 L 802.5 383 L 779.5 365 L 773.5 358 Z " /><path fill="rgb(21,62,41)" stroke="rgb(21,62,41)" stroke-width="1" opacity="0.28627450980392155" d="M 724.5 361 L 725 363.5 L 720.5 376 L 720 374.5 L 722 371.5 L 724.5 361 Z " /><path fill="rgb(21,62,41)" stroke="rgb(21,62,41)" stroke-width="1" opacity="0.28627450980392155" d="M 746.5 364 L 791 397 L 792.5 400 L 796 401 Q 794.9 403.7 797.5 403 L 808 410 L 807.5 412 L 747.5 366 L 746 367.5 L 746 407.5 L 747 408.5 L 747 419.5 L 746 419.5 L 746 409.5 L 745 408.5 L 745 365.5 L 746.5 364 Z " /><path fill="rgb(21,62,41)" stroke="rgb(21,62,41)" stroke-width="1" opacity="0.28627450980392155" d="M 319.5 371 L 320 375.5 L 314.5 395 L 314 391.5 L 319.5 371 Z " /><path fill="rgb(21,62,41)" stroke="rgb(21,62,41)" stroke-width="1" opacity="0.28627450980392155" d="M 353.5 371 L 370.5 371 L 375.5 372 L 381 377.5 Q 383.7 379.8 383 385.5 L 379 391 L 370.5 395 L 349.5 395 L 340 389.5 L 337 381.5 L 342.5 373 L 353.5 371 Z M 348 373 L 345 374 L 339 383 L 341 388 L 349 393 L 372 393 L 375 392 L 381 385 L 379 378 L 374 373 L 348 373 Z " /><path fill="rgb(21,62,41)" stroke="rgb(21,62,41)" stroke-width="1" opacity="0.28627450980392155" d="M 418.5 371 L 539.5 371 Q 540.8 373.3 545.5 372 L 551 377.5 L 552 386.5 Q 547.4 392.9 538.5 395 L 420.5 395 Q 413.6 393.4 410 388.5 Q 406.6 385.9 408 378.5 L 412 373 L 418.5 371 Z M 425 372 L 424 373 L 416 373 L 410 379 L 411 387 L 419 393 L 540 393 Q 547 391 551 386 Q 552 380 549 378 L 546 374 L 539 372 L 433 372 L 432 373 Q 430 371 425 372 Z " /><path fill="rgb(21,62,41)" stroke="rgb(21,62,41)" stroke-width="1" opacity="0.28627450980392155" d="M 719.5 377 L 720 379.5 Q 705.1 417.6 676.5 442 L 662.5 450 L 655.5 451 L 656.5 449 L 659.5 449 L 665.5 446 L 667 446.5 Q 666.3 444.3 668.5 445 Q 681.6 437.1 691 425.5 Q 709.5 405.5 719.5 377 Z " /><path fill="rgb(21,62,41)" stroke="rgb(21,62,41)" stroke-width="1" opacity="0.28627450980392155" d="M 804.5 383 L 805.5 385 L 804.5 383 Z " /><path fill="rgb(21,62,41)" stroke="rgb(21,62,41)" stroke-width="1" opacity="0.28627450980392155" d="M 313.5 396 L 314 399.5 L 312.5 404 L 312 400.5 L 313.5 396 Z " /><path fill="rgb(21,62,41)" stroke="rgb(21,62,41)" stroke-width="1" opacity="0.28627450980392155" d="M 311.5 407 L 312 415.5 L 310 424.5 L 309.5 438 L 309 424.5 L 310 423.5 L 310 414.5 L 311.5 407 Z " /><path fill="rgb(21,62,41)" stroke="rgb(21,62,41)" stroke-width="1" opacity="0.28627450980392155" d="M 809.5 412 L 817.5 417 L 834.5 432 L 842.5 436 L 855 445.5 L 856 448.5 L 853.5 452 L 822.5 475 L 796 492 L 794.5 495 L 754.5 523 L 745.5 528 L 743 528 L 743 523.5 L 747.5 509 L 748 512.5 L 744 526 L 759.5 518 L 854 449.5 Q 854.8 444.8 851.5 444 Q 827.7 429.9 809.5 412 Z " /><path fill="rgb(21,62,41)" stroke="rgb(21,62,41)" stroke-width="1" opacity="0.28627450980392155" d="M 336.5 416 L 366.5 416 L 371 419.5 L 375 427.5 Q 373.6 433.6 368.5 436 L 365.5 437 L 368.5 433 L 370 433.5 L 373 425.5 L 368.5 418 L 366.5 418 L 364.5 417 L 338.5 417 L 335 419.5 L 332 424.5 L 333 427.5 L 331 426.5 L 332 423.5 L 334 417 L 336.5 416 Z " /><path fill="rgb(21,62,41)" stroke="rgb(21,62,41)" stroke-width="1" opacity="0.28627450980392155" d="M 747.5 421 L 752 445.5 L 752 477.5 L 751 478.5 L 751 496.5 L 748.5 508 L 748 502.5 L 750 493.5 L 750 476.5 L 751 475.5 L 751 446.5 L 748 434.5 L 747.5 421 Z " /><path fill="rgb(21,62,41)" stroke="rgb(21,62,41)" stroke-width="1" opacity="0.28627450980392155" d="M 332.5 430 Q 334.8 429.3 334 431.5 Q 336.8 435.8 342.5 437 L 360.5 437 L 362.5 436 L 363.5 438 L 355.5 438 L 354.5 439 L 352.5 438 Q 351 440.5 345.5 439 L 343.5 439 Q 336.8 437.8 333 433.5 L 332.5 430 Z " /><path fill="rgb(21,62,41)" stroke="rgb(21,62,41)" stroke-width="1" opacity="0.28627450980392155" d="M 610.5 439 L 609.5 441 L 610.5 439 Z " /><path fill="rgb(21,62,41)" stroke="rgb(21,62,41)" stroke-width="1" opacity="0.28627450980392155" d="M 612.5 440 L 621 444 L 620.5 446 L 617 445 L 616.5 443 L 615 443.5 L 614.5 442 L 612.5 442 L 611 441.5 L 612.5 440 Z " /><path fill="rgb(21,62,41)" stroke="rgb(21,62,41)" stroke-width="1" opacity="0.28627450980392155" d="M 623.5 445 L 624 447 L 622 446.5 L 623.5 445 Z " /><path fill="rgb(21,62,41)" stroke="rgb(21,62,41)" stroke-width="1" opacity="0.28627450980392155" d="M 625.5 446 Q 627.8 445.3 627 447.5 L 625.5 446 Z " /><path fill="rgb(21,62,41)" stroke="rgb(21,62,41)" stroke-width="1" opacity="0.28627450980392155" d="M 628 447 Q 631 446 630 449 Q 627 450 628 447 Z " /><path fill="rgb(21,62,41)" stroke="rgb(21,62,41)" stroke-width="1" opacity="0.28627450980392155" d="M 631.5 448 Q 633.8 447.3 633 449.5 L 631.5 448 Z " /><path fill="rgb(21,62,41)" stroke="rgb(21,62,41)" stroke-width="1" opacity="0.28627450980392155" d="M 635 449 L 649.5 451 L 654 450 L 653.5 452 L 640.5 452 L 637.5 450 L 635 451 L 635 449 Z " /><path fill="rgb(21,62,41)" stroke="rgb(21,62,41)" stroke-width="1" opacity="0.28627450980392155" d="M 309.5 452 L 312 481.5 L 311 481.5 L 310 466.5 L 309 465.5 L 309.5 452 Z " /><path fill="rgb(21,62,41)" stroke="rgb(21,62,41)" stroke-width="1" opacity="0.28627450980392155" d="M 557.5 457 L 565.5 457 L 572 458.5 L 566.5 459 L 565.5 458 L 557.5 458 L 556.5 459 L 541.5 459 L 531.5 461 L 426.5 461 L 422.5 462 L 420 460.5 L 449.5 460 L 450.5 459 L 540.5 459 L 541.5 458 L 556.5 458 L 557.5 457 Z " /><path fill="rgb(21,62,41)" stroke="rgb(21,62,41)" stroke-width="1" opacity="0.28627450980392155" d="M 573.5 459 Q 582.3 459.2 587 463.5 L 585.5 464 Q 581.2 460.3 573.5 460 L 573.5 459 Z " /><path fill="rgb(21,62,41)" stroke="rgb(21,62,41)" stroke-width="1" opacity="0.28627450980392155" d="M 340.5 460 L 366 460.5 L 362.5 462 L 342.5 462 L 340.5 461 L 338 462.5 Q 340.3 463.7 337.5 465 L 336 465.5 L 336.5 467 Q 334.3 467.8 335 465.5 L 338 463.5 Q 335.8 462.3 338.5 461 L 340.5 460 Z " /><path fill="rgb(21,62,41)" stroke="rgb(21,62,41)" stroke-width="1" opacity="0.28627450980392155" d="M 368.5 460 L 373 460.5 L 368.5 461 L 368.5 460 Z " /><path fill="rgb(21,62,41)" stroke="rgb(21,62,41)" stroke-width="1" opacity="0.28627450980392155" d="M 376.5 461 L 382 465.5 Q 384.6 466.9 384 471.5 L 382 470.5 L 381 468.5 L 381.5 467 L 377 463.5 L 376.5 462 L 375 462.5 L 376.5 461 Z " /><path fill="rgb(21,62,41)" stroke="rgb(21,62,41)" stroke-width="1" opacity="0.28627450980392155" d="M 415.5 462 Q 419 464 414.5 466 L 414 463.5 L 415.5 462 Z " /><path fill="rgb(21,62,41)" stroke="rgb(21,62,41)" stroke-width="1" opacity="0.28627450980392155" d="M 588.5 464 L 602.5 469 L 623.5 481 L 632 487.5 L 629.5 486 Q 611.3 473.2 588.5 465 L 588.5 464 Z " /><path fill="rgb(21,62,41)" stroke="rgb(21,62,41)" stroke-width="1" opacity="0.28627450980392155" d="M 412.5 466 L 413 468.5 L 411 471.5 Q 413.3 472.8 410.5 474 L 410 469.5 L 412.5 466 Z " /><path fill="rgb(21,62,41)" stroke="rgb(21,62,41)" stroke-width="1" opacity="0.28627450980392155" d="M 336.5 473 L 336.5 475 L 342 479.5 L 341.5 481 L 340.5 479 Q 338.8 481.8 337 477.5 L 337.5 476 L 335 474.5 L 336.5 473 Z " /><path fill="rgb(21,62,41)" stroke="rgb(21,62,41)" stroke-width="1" opacity="0.28627450980392155" d="M 382 473 Q 385 471.8 384 475.5 L 380 477 L 377.5 481 L 374 482 Q 372.8 479 376.5 480 L 382 473 Z " /><path fill="rgb(21,62,41)" stroke="rgb(21,62,41)" stroke-width="1" opacity="0.28627450980392155" d="M 412.5 475 L 418 481.5 L 414 480.5 L 414.5 479 Q 411.2 480.1 412 477.5 Q 409.8 476.2 412.5 475 Z " /><path fill="rgb(21,62,41)" stroke="rgb(21,62,41)" stroke-width="1" opacity="0.28627450980392155" d="M 849.5 477 Q 852.8 475.9 852 478.5 L 849.5 479 L 778.5 530 L 769.5 535 L 765 539.5 Q 756.6 562.1 743 579.5 Q 725.7 604.7 703.5 625 Q 684.4 642.9 660.5 656 L 662.5 653 L 678.5 644 L 704 624 L 706.5 620 Q 708.8 620.8 708 618.5 L 712 616 L 714.5 612 Q 716.8 612.8 716 610.5 L 728 597.5 L 730 593 Q 732.7 594.1 732 591.5 L 752 564.5 L 760 549.5 L 764 538.5 L 766.5 536 L 775.5 531 L 821.5 497 L 832 491 Q 830.9 488.3 833.5 489 L 849.5 477 Z " /><path fill="rgb(21,62,41)" stroke="rgb(21,62,41)" stroke-width="1" opacity="0.28627450980392155" d="M 851.5 480 L 852 490.5 L 848.5 506 L 848 501.5 L 850 495.5 L 851.5 480 Z " /><path fill="rgb(21,62,41)" stroke="rgb(21,62,41)" stroke-width="1" opacity="0.28627450980392155" d="M 440.5 482 L 502 482.5 L 440.5 483 L 440.5 482 Z " /><path fill="rgb(21,62,41)" stroke="rgb(21,62,41)" stroke-width="1" opacity="0.28627450980392155" d="M 523.5 482 L 540.5 482 L 546 484 L 552.5 492 Q 554.8 491.3 554 493.5 L 556 495.5 L 558 503.5 L 556.5 505 L 545.5 506 L 540.5 505 L 537.5 506 L 536.5 505 L 519 504.5 L 555.5 504 L 557 502.5 L 552 492 L 544 486.5 Q 544.8 484.3 542.5 485 L 541.5 484 L 525.5 484 L 523.5 482 Z " /><path fill="rgb(21,62,41)" stroke="rgb(21,62,41)" stroke-width="1" opacity="0.28627450980392155" d="M 508.5 483 L 513 483.5 L 508.5 484 L 508.5 483 Z " /><path fill="rgb(21,62,41)" stroke="rgb(21,62,41)" stroke-width="1" opacity="0.28627450980392155" d="M 312.5 484 L 316 501.5 L 315 501.5 L 312.5 484 Z " /><path fill="rgb(21,62,41)" stroke="rgb(21,62,41)" stroke-width="1" opacity="0.28627450980392155" d="M 633.5 488 L 647 497 L 652 505.5 L 650 504.5 L 641.5 494 L 634.5 490 L 633.5 488 Z " /><path fill="rgb(21,62,41)" stroke="rgb(21,62,41)" stroke-width="1" opacity="0.28627450980392155" d="M 316.5 503 L 324 528.5 L 332 546.5 L 331 546.5 Q 320.5 527.1 316.5 503 Z " /><path fill="rgb(21,62,41)" stroke="rgb(21,62,41)" stroke-width="1" opacity="0.28627450980392155" d="M 360.5 504 L 361.5 505 L 374.5 505 L 382 510.5 Q 384.8 513.2 384 519.5 Q 380.8 525.8 372.5 527 L 373.5 525 L 381 521 L 382 514.5 L 376.5 508 Q 372.2 504.3 362.5 506 L 357.5 507 L 356.5 505 L 360.5 504 Z " /><path fill="rgb(21,62,41)" stroke="rgb(21,62,41)" stroke-width="1" opacity="0.28627450980392155" d="M 421.5 504 Q 429 502.5 432 505.5 L 418.5 507 L 417 508.5 L 412 519.5 L 407 526.5 L 423.5 527 L 430 528.5 L 411.5 529 L 406 528 L 406 525.5 L 411 519.5 L 412 514.5 L 417 505 L 421.5 504 Z " /><path fill="rgb(21,62,41)" stroke="rgb(21,62,41)" stroke-width="1" opacity="0.28627450980392155" d="M 244.5 505 L 246 508.5 L 246 516.5 L 248 526 Q 244.7 527.3 246 522.5 L 244 517.5 L 244 515.5 L 244.5 505 Z " /><path fill="rgb(21,62,41)" stroke="rgb(21,62,41)" stroke-width="1" opacity="0.28627450980392155" d="M 346.5 505 L 354 505.5 L 348.5 507 L 346.5 505 Z " /><path fill="rgb(21,62,41)" stroke="rgb(21,62,41)" stroke-width="1" opacity="0.28627450980392155" d="M 652.5 507 L 659 519.5 L 660 530.5 L 659 530.5 L 658 519.5 L 652.5 507 Z " /><path fill="rgb(21,62,41)" stroke="rgb(21,62,41)" stroke-width="1" opacity="0.28627450980392155" d="M 847.5 507 L 848 515.5 L 845.5 525 L 845 521.5 L 847.5 507 Z " /><path fill="rgb(21,62,41)" stroke="rgb(21,62,41)" stroke-width="1" opacity="0.28627450980392155" d="M 344.5 521 L 347 522.5 Q 344.3 524.3 348.5 526 L 350 525.5 Q 348.3 528.8 346.5 525 Q 344.3 525.8 345 523.5 L 345.5 522 L 344.5 521 Z " /><path fill="rgb(21,62,41)" stroke="rgb(21,62,41)" stroke-width="1" opacity="0.28627450980392155" d="M 351.5 526 L 352 528 L 350 527.5 L 351.5 526 Z " /><path fill="rgb(21,62,41)" stroke="rgb(21,62,41)" stroke-width="1" opacity="0.28627450980392155" d="M 366.5 526 Q 372.4 524.3 371 528 L 361 527.5 L 366.5 526 Z " /><path fill="rgb(21,62,41)" stroke="rgb(21,62,41)" stroke-width="1" opacity="0.28627450980392155" d="M 534.5 526 L 541 526.5 L 538.5 528 L 535.5 527 L 534.5 526 Z " /><path fill="rgb(21,62,41)" stroke="rgb(21,62,41)" stroke-width="1" opacity="0.28627450980392155" d="M 543.5 526 L 555.5 527 L 569.5 532 L 583.5 534 L 587 536.5 Q 587.8 538.8 585.5 538 L 585.5 540 L 583.5 536 L 571.5 534 L 553.5 528 L 543.5 527 L 543.5 526 Z " /><path fill="rgb(21,62,41)" stroke="rgb(21,62,41)" stroke-width="1" opacity="0.28627450980392155" d="M 844.5 526 L 845 528.5 L 844 528.5 L 844.5 526 Z " /><path fill="rgb(21,62,41)" stroke="rgb(21,62,41)" stroke-width="1" opacity="0.28627450980392155" d="M 515 527 L 522.5 527 L 523 529 L 515.5 529 L 515 527 Z " /><path fill="rgb(21,62,41)" stroke="rgb(21,62,41)" stroke-width="1" opacity="0.28627450980392155" d="M 247.5 528 L 249 529.5 L 253 548.5 L 252 550.5 L 254 550.5 Q 255 554.3 252 553 L 247 532.5 L 247.5 528 Z " /><path fill="rgb(21,62,41)" stroke="rgb(21,62,41)" stroke-width="1" opacity="0.28627450980392155" d="M 460.5 528 L 487 528.5 L 485.5 530 L 461.5 530 L 460.5 528 Z " /><path fill="rgb(21,62,41)" stroke="rgb(21,62,41)" stroke-width="1" opacity="0.28627450980392155" d="M 843.5 530 L 844 535.5 L 841.5 543 L 841 540.5 L 843.5 530 Z " /><path fill="rgb(21,62,41)" stroke="rgb(21,62,41)" stroke-width="1" opacity="0.28627450980392155" d="M 659.5 535 L 660 543.5 L 653 559.5 L 641.5 572 L 577.5 615 L 524.5 647 L 523.5 645 L 525 645.5 L 525.5 644 L 527 644.5 L 528.5 642 L 605.5 595 L 640.5 571 L 651 560.5 Q 658.3 550.8 659.5 535 Z " /><path fill="rgb(21,62,41)" stroke="rgb(21,62,41)" stroke-width="1" opacity="0.28627450980392155" d="M 583.5 540 L 569 555.5 Q 569.8 557.8 567.5 557 L 566.5 560 L 565 559.5 Q 565.8 561.8 563.5 561 L 564 562.5 L 558.5 568 Q 555.9 567.2 557 570.5 L 546 580.5 Q 548.3 581.8 545.5 583 Q 543.8 580.2 542 584.5 Q 544.3 585.8 541.5 587 L 540 585.5 L 548 577.5 L 558 565 L 562 563.5 L 561 562.5 L 568 555.5 Q 567.3 553.3 569.5 554 L 577 545 L 583.5 540 Z " /><path fill="rgb(21,62,41)" stroke="rgb(21,62,41)" stroke-width="1" opacity="0.28627450980392155" d="M 840.5 544 L 841 546.5 L 836.5 560 L 836 558.5 L 840.5 544 Z " /><path fill="rgb(21,62,41)" stroke="rgb(21,62,41)" stroke-width="1" opacity="0.28627450980392155" d="M 332.5 548 L 336 554.5 L 335 554.5 L 332.5 548 Z " /><path fill="rgb(21,62,41)" stroke="rgb(21,62,41)" stroke-width="1" opacity="0.28627450980392155" d="M 387.5 548 L 388.5 549 L 396.5 549 L 397.5 548 L 405.5 548 L 413 549.5 L 406.5 551 L 397.5 551 L 392.5 550 L 391.5 551 L 366.5 551 L 362 553.5 L 362 556.5 L 373 571.5 L 370.5 570 L 369 570 L 369 568 Q 366.3 569.1 367 566.5 Q 361.8 561.7 360 553.5 L 366.5 550 L 386.5 549 L 387.5 548 Z " /><path fill="rgb(21,62,41)" stroke="rgb(21,62,41)" stroke-width="1" opacity="0.28627450980392155" d="M 496.5 548 L 503.5 548 L 504 549.5 Q 506.3 550.8 503.5 552 L 503.5 550 L 492 549.5 L 496.5 548 Z " /><path fill="rgb(21,62,41)" stroke="rgb(21,62,41)" stroke-width="1" opacity="0.28627450980392155" d="M 456.5 549 L 475 549.5 L 456.5 550 L 456.5 549 Z " /><path fill="rgb(21,62,41)" stroke="rgb(21,62,41)" stroke-width="1" opacity="0.28627450980392155" d="M 484.5 549 L 487 549.5 L 484.5 550 L 484.5 549 Z " /><path fill="rgb(21,62,41)" stroke="rgb(21,62,41)" stroke-width="1" opacity="0.28627450980392155" d="M 501.5 552 Q 505 554 500.5 556 Q 498.3 555.3 499 557.5 L 473.5 580 L 474 578.5 L 482.5 569 L 490 564 L 491.5 561 L 494 559.5 Q 493.3 557.3 495.5 558 L 502 553.5 L 501.5 552 Z " /><path fill="rgb(21,62,41)" stroke="rgb(21,62,41)" stroke-width="1" opacity="0.28627450980392155" d="M 253.5 554 L 256 559.5 L 254 560.5 L 252 555.5 L 253.5 554 Z " /><path fill="rgb(21,62,41)" stroke="rgb(21,62,41)" stroke-width="1" opacity="0.28627450980392155" d="M 336.5 556 L 348 573.5 L 348 575.5 L 360 592 L 363 593.5 L 379.5 612 L 392 622 Q 390.9 624.7 393.5 624 Q 410.7 639.8 432 651.5 L 430.5 651 Q 391.2 629.3 363 596.5 Q 346.6 578.3 336.5 556 Z " /><path fill="rgb(21,62,41)" stroke="rgb(21,62,41)" stroke-width="1" opacity="0.28627450980392155" d="M 835.5 561 L 836 563.5 L 833.5 569 L 833 567.5 L 835.5 561 Z " /><path fill="rgb(21,62,41)" stroke="rgb(21,62,41)" stroke-width="1" opacity="0.28627450980392155" d="M 256.5 562 L 258 565.5 L 257.5 567 Q 260.1 566.3 259 569 Q 256.3 570.1 257 567.5 L 256 565.5 L 256 563.5 L 256.5 562 Z " /><path fill="rgb(21,62,41)" stroke="rgb(21,62,41)" stroke-width="1" opacity="0.28627450980392155" d="M 258 570 L 260 570.5 L 260 572.5 L 261 574.5 L 260.5 576 L 262 576.5 L 260 577.5 L 258 570 Z " /><path fill="rgb(21,62,41)" stroke="rgb(21,62,41)" stroke-width="1" opacity="0.28627450980392155" d="M 832.5 570 L 833 571.5 L 823 597.5 L 812 619.5 L 795 646.5 L 781.5 664 Q 779.3 663.3 780 665.5 Q 765 685 746.5 701 Q 710.9 734.4 663.5 756 L 658.5 757 L 648.5 762 L 639.5 764 L 634.5 767 L 630.5 767 L 606.5 774 L 586.5 778 L 567.5 779 L 567.5 778 L 588.5 776 L 631.5 766 L 659.5 756 L 684.5 744 Q 711.9 728.4 735.5 709 L 773 672.5 Q 793 649.5 809 622.5 Q 822.8 598.3 832.5 570 Z " /><path fill="rgb(21,62,41)" stroke="rgb(21,62,41)" stroke-width="1" opacity="0.28627450980392155" d="M 377.5 576 L 379.5 579 L 377.5 576 Z " /><path fill="rgb(21,62,41)" stroke="rgb(21,62,41)" stroke-width="1" opacity="0.28627450980392155" d="M 262.5 578 L 264 582.5 L 263.5 584 L 265 584.5 L 263.5 585 L 261 579.5 L 262.5 578 Z " /><path fill="rgb(21,62,41)" stroke="rgb(21,62,41)" stroke-width="1" opacity="0.28627450980392155" d="M 470.5 580 Q 473.5 581.5 470.5 583 L 469.5 582 L 465 585.5 L 470.5 580 Z " /><path fill="rgb(21,62,41)" stroke="rgb(21,62,41)" stroke-width="1" opacity="0.28627450980392155" d="M 384.5 584 L 386.5 587 L 384.5 584 Z " /><path fill="rgb(21,62,41)" stroke="rgb(21,62,41)" stroke-width="1" opacity="0.28627450980392155" d="M 265.5 586 L 267 589.5 Q 265.5 592.5 264 589.5 L 266 588.5 L 264 587.5 L 265.5 586 Z " /><path fill="rgb(21,62,41)" stroke="rgb(21,62,41)" stroke-width="1" opacity="0.28627450980392155" d="M 463.5 587 L 464 588.5 L 460.5 592 L 459.5 591 L 454 596.5 Q 456.3 597.8 453.5 599 Q 451.8 596.2 450 600.5 L 447.5 604 Q 445.8 601.2 444 605.5 L 444.5 607 Q 442.8 604.2 441 608.5 L 441.5 610 Q 440.3 607.8 439 610.5 Q 439.8 612.8 437.5 612 L 436.5 615 Q 434.8 612.3 433 616.5 Q 435.3 617.8 432.5 619 Q 431.3 616.8 430 619.5 L 430.5 621 L 428 620.5 L 446.5 602 L 448 602.5 L 460.5 589 Q 461.8 591.2 463 588.5 L 463.5 587 Z " /><path fill="rgb(21,62,41)" stroke="rgb(21,62,41)" stroke-width="1" opacity="0.28627450980392155" d="M 537.5 588 L 537 589.5 Q 538.1 592.8 535.5 592 L 514 613.5 Q 516.8 615.3 512.5 617 L 514 614.5 L 513 613.5 L 521 605.5 L 523.5 602 L 526 600.5 Q 525.3 598.3 527.5 599 L 537.5 588 Z " /><path fill="rgb(21,62,41)" stroke="rgb(21,62,41)" stroke-width="1" opacity="0.28627450980392155" d="M 390.5 591 L 397.5 599 L 395 598.5 L 396 597.5 L 390.5 591 Z " /><path fill="rgb(21,62,41)" stroke="rgb(21,62,41)" stroke-width="1" opacity="0.28627450980392155" d="M 267.5 594 L 270 595.5 L 268 596.5 L 267.5 594 Z " /><path fill="rgb(21,62,41)" stroke="rgb(21,62,41)" stroke-width="1" opacity="0.28627450980392155" d="M 270.5 597 L 269.5 599 L 270.5 597 Z " /><path fill="rgb(21,62,41)" stroke="rgb(21,62,41)" stroke-width="1" opacity="0.28627450980392155" d="M 270 600 L 272 600.5 L 271.5 602 L 273 602.5 L 271.5 603 L 270 600 Z " /><path fill="rgb(21,62,41)" stroke="rgb(21,62,41)" stroke-width="1" opacity="0.28627450980392155" d="M 398.5 600 L 399.5 602 L 398.5 600 Z " /><path fill="rgb(21,62,41)" stroke="rgb(21,62,41)" stroke-width="1" opacity="0.28627450980392155" d="M 273 606 L 275 606.5 L 274.5 609 L 273 606 Z " /><path fill="rgb(21,62,41)" stroke="rgb(21,62,41)" stroke-width="1" opacity="0.28627450980392155" d="M 407.5 608 Q 409.3 611.1 411 609.5 L 409.5 611 L 407.5 608 Z " /><path fill="rgb(21,62,41)" stroke="rgb(21,62,41)" stroke-width="1" opacity="0.28627450980392155" d="M 275 610 L 278 611.5 L 277.5 613 L 279 613.5 L 278.5 615 L 280 615.5 L 279.5 617 Q 281.8 616.3 281 618.5 Q 284.5 620 282 621.5 L 283 623.5 L 281 622.5 L 282 620.5 L 279 618.5 L 275 610 Z " /><path fill="rgb(21,62,41)" stroke="rgb(21,62,41)" stroke-width="1" opacity="0.28627450980392155" d="M 414.5 614 L 416.5 614 L 419 616.5 L 416.5 615 L 415.5 616 L 414.5 614 Z " /><path fill="rgb(21,62,41)" stroke="rgb(21,62,41)" stroke-width="1" opacity="0.28627450980392155" d="M 510.5 616 L 509.5 618 L 510.5 616 Z " /><path fill="rgb(21,62,41)" stroke="rgb(21,62,41)" stroke-width="1" opacity="0.28627450980392155" d="M 421.5 618 L 422.5 620 L 421.5 618 Z " /><path fill="rgb(21,62,41)" stroke="rgb(21,62,41)" stroke-width="1" opacity="0.28627450980392155" d="M 508.5 619 L 507.5 621 L 508.5 619 Z " /><path fill="rgb(21,62,41)" stroke="rgb(21,62,41)" stroke-width="1" opacity="0.28627450980392155" d="M 423.5 621 L 426 621.5 Q 423.9 624.8 423.5 621 Z " /><path fill="rgb(21,62,41)" stroke="rgb(21,62,41)" stroke-width="1" opacity="0.28627450980392155" d="M 502.5 625 L 503 627.5 L 501.5 629 L 501 626.5 L 502.5 625 Z " /><path fill="rgb(21,62,41)" stroke="rgb(21,62,41)" stroke-width="1" opacity="0.28627450980392155" d="M 286.5 627 L 285.5 629 L 286.5 627 Z " /><path fill="rgb(21,62,41)" stroke="rgb(21,62,41)" stroke-width="1" opacity="0.28627450980392155" d="M 499.5 628 L 500 630.5 L 498.5 632 L 498 629.5 L 499.5 628 Z " /><path fill="rgb(21,62,41)" stroke="rgb(21,62,41)" stroke-width="1" opacity="0.28627450980392155" d="M 287 631 L 290 632.5 L 289.5 634 L 291 634.5 L 289.5 635 L 287 631 Z " /><path fill="rgb(21,62,41)" stroke="rgb(21,62,41)" stroke-width="1" opacity="0.28627450980392155" d="M 292.5 637 L 293.5 639 L 292.5 637 Z " /><path fill="rgb(21,62,41)" stroke="rgb(21,62,41)" stroke-width="1" opacity="0.28627450980392155" d="M 293 640 L 295 640.5 L 294.5 643 L 293 640 Z " /><path fill="rgb(21,62,41)" stroke="rgb(21,62,41)" stroke-width="1" opacity="0.28627450980392155" d="M 487.5 641 L 481.5 648 L 487.5 641 Z " /><path fill="rgb(21,62,41)" stroke="rgb(21,62,41)" stroke-width="1" opacity="0.28627450980392155" d="M 296.5 643 L 298 644.5 L 297.5 647 Q 293 645 296.5 643 Z " /><path fill="rgb(21,62,41)" stroke="rgb(21,62,41)" stroke-width="1" opacity="0.28627450980392155" d="M 298.5 648 L 303 651.5 L 301 652.5 Q 303.3 651.3 300.5 650 L 298.5 648 Z " /><path fill="rgb(21,62,41)" stroke="rgb(21,62,41)" stroke-width="1" opacity="0.28627450980392155" d="M 518.5 648 L 518 649.5 L 517.5 651 L 516 650.5 L 515.5 652 L 515 650.5 L 518.5 648 Z " /><path fill="rgb(21,62,41)" stroke="rgb(21,62,41)" stroke-width="1" opacity="0.28627450980392155" d="M 433.5 652 L 456 663.5 L 454.5 663 L 440.5 657 L 433.5 653 L 433.5 652 Z " /><path fill="rgb(21,62,41)" stroke="rgb(21,62,41)" stroke-width="1" opacity="0.28627450980392155" d="M 511.5 653 L 514 653.5 L 509.5 656 L 508 655.5 L 506.5 658 L 504.5 658 L 501.5 659 L 501 657 L 505.5 656 L 507 656.5 L 508.5 654 Q 510 656.5 511.5 653 Z " /><path fill="rgb(21,62,41)" stroke="rgb(21,62,41)" stroke-width="1" opacity="0.28627450980392155" d="M 304.5 656 L 308 658.5 L 306.5 658 L 304.5 656 Z " /><path fill="rgb(21,62,41)" stroke="rgb(21,62,41)" stroke-width="1" opacity="0.28627450980392155" d="M 657.5 656 L 659 656.5 L 649.5 662 L 624.5 672 L 625.5 670 L 633.5 668 L 657.5 656 Z " /><path fill="rgb(21,62,41)" stroke="rgb(21,62,41)" stroke-width="1" opacity="0.28627450980392155" d="M 307.5 660 L 311 662.5 L 310 663.5 L 311.5 666 Q 307.8 664 309.5 662 L 307.5 660 Z " /><path fill="rgb(21,62,41)" stroke="rgb(21,62,41)" stroke-width="1" opacity="0.28627450980392155" d="M 457.5 664 L 464 666.5 L 462.5 667 L 457.5 665 L 457.5 664 Z " /><path fill="rgb(21,62,41)" stroke="rgb(21,62,41)" stroke-width="1" opacity="0.28627450980392155" d="M 313.5 666 L 315.5 670 L 320 673.5 L 319 674.5 L 320.5 677 L 317 673.5 Q 319.3 672.3 316.5 671 L 312 667.5 L 313.5 666 Z " /><path fill="rgb(21,62,41)" stroke="rgb(21,62,41)" stroke-width="1" opacity="0.28627450980392155" d="M 467.5 668 L 475 670.5 L 473.5 671 L 467.5 669 L 467.5 668 Z " /><path fill="rgb(21,62,41)" stroke="rgb(21,62,41)" stroke-width="1" opacity="0.28627450980392155" d="M 479.5 672 L 490 675.5 L 488.5 676 L 479.5 673 L 479.5 672 Z " /><path fill="rgb(21,62,41)" stroke="rgb(21,62,41)" stroke-width="1" opacity="0.28627450980392155" d="M 619.5 672 L 623 672.5 L 611.5 676 L 611.5 675 L 619.5 672 Z " /><path fill="rgb(21,62,41)" stroke="rgb(21,62,41)" stroke-width="1" opacity="0.28627450980392155" d="M 491.5 676 L 502 678.5 L 499.5 679 L 491.5 677 L 491.5 676 Z " /><path fill="rgb(21,62,41)" stroke="rgb(21,62,41)" stroke-width="1" opacity="0.28627450980392155" d="M 605.5 676 L 610 676.5 L 594.5 680 L 594.5 679 L 605.5 676 Z " /><path fill="rgb(21,62,41)" stroke="rgb(21,62,41)" stroke-width="1" opacity="0.28627450980392155" d="M 322.5 677 L 324.5 680 Q 322.8 676.9 321 678.5 L 322.5 677 Z " /><path fill="rgb(21,62,41)" stroke="rgb(21,62,41)" stroke-width="1" opacity="0.28627450980392155" d="M 503.5 679 L 506 679.5 L 503.5 680 L 503.5 679 Z " /><path fill="rgb(21,62,41)" stroke="rgb(21,62,41)" stroke-width="1" opacity="0.28627450980392155" d="M 508.5 680 L 519 681.5 L 513.5 682 L 508.5 681 L 508.5 680 Z " /><path fill="rgb(21,62,41)" stroke="rgb(21,62,41)" stroke-width="1" opacity="0.28627450980392155" d="M 587.5 680 L 593 680.5 L 573.5 683 L 573.5 682 L 579.5 682 L 587.5 680 Z " /><path fill="rgb(21,62,41)" stroke="rgb(21,62,41)" stroke-width="1" opacity="0.28627450980392155" d="M 324.5 681 L 325.5 683 L 324.5 681 Z " /><path fill="rgb(21,62,41)" stroke="rgb(21,62,41)" stroke-width="1" opacity="0.28627450980392155" d="M 520.5 682 L 527 682.5 L 520.5 683 L 520.5 682 Z " /><path fill="rgb(21,62,41)" stroke="rgb(21,62,41)" stroke-width="1" opacity="0.28627450980392155" d="M 530.5 683 L 539 683.5 L 530.5 684 L 530.5 683 Z " /><path fill="rgb(21,62,41)" stroke="rgb(21,62,41)" stroke-width="1" opacity="0.28627450980392155" d="M 557.5 683 L 570 683.5 L 557.5 684 L 557.5 683 Z " /><path fill="rgb(21,62,41)" stroke="rgb(21,62,41)" stroke-width="1" opacity="0.28627450980392155" d="M 330.5 686 L 331.5 688 L 330.5 686 Z " /><path fill="rgb(21,62,41)" stroke="rgb(21,62,41)" stroke-width="1" opacity="0.28627450980392155" d="M 333.5 689 L 334.5 691 L 333.5 689 Z " /><path fill="rgb(21,62,41)" stroke="rgb(21,62,41)" stroke-width="1" opacity="0.28627450980392155" d="M 309.5 692 L 324 705.5 L 323.5 707 L 321.5 704 L 314.5 698 L 313 698.5 L 314 697.5 L 310.5 694 L 309 694.5 L 309.5 692 Z " /><path fill="rgb(21,62,41)" stroke="rgb(21,62,41)" stroke-width="1" opacity="0.28627450980392155" d="M 302.5 693 L 296 700.5 L 296.5 702 L 294 701.5 L 302.5 693 Z " /><path fill="rgb(21,62,41)" stroke="rgb(21,62,41)" stroke-width="1" opacity="0.28627450980392155" d="M 337.5 693 L 340.5 697 L 336 694.5 L 337.5 693 Z " /><path fill="rgb(21,62,41)" stroke="rgb(21,62,41)" stroke-width="1" opacity="0.28627450980392155" d="M 344.5 701 L 346.5 701 L 350 704.5 L 347.5 703 L 346.5 704 L 344.5 701 Z " /><path fill="rgb(21,62,41)" stroke="rgb(21,62,41)" stroke-width="1" opacity="0.28627450980392155" d="M 293.5 703 L 290 707.5 L 290.5 709 Q 287.3 707.3 291 705.5 Q 290.3 703.3 292.5 704 L 293.5 703 Z " /><path fill="rgb(21,62,41)" stroke="rgb(21,62,41)" stroke-width="1" opacity="0.28627450980392155" d="M 352.5 706 L 354.5 709 L 352.5 706 Z " /><path fill="rgb(21,62,41)" stroke="rgb(21,62,41)" stroke-width="1" opacity="0.28627450980392155" d="M 288.5 709 L 286 712.5 L 285 716 Q 282.3 714.9 283 717.5 L 277.5 724 L 278 722.5 L 288.5 709 Z " /><path fill="rgb(21,62,41)" stroke="rgb(21,62,41)" stroke-width="1" opacity="0.28627450980392155" d="M 322.5 709 L 322 710.5 L 322 712 Q 318.3 710.5 319 713.5 L 316 714.5 L 315.5 716 L 315 714.5 L 318 713.5 L 319.5 711 L 322.5 709 Z " /><path fill="rgb(21,62,41)" stroke="rgb(21,62,41)" stroke-width="1" opacity="0.28627450980392155" d="M 355.5 710 L 357.5 710 L 360 712.5 L 357.5 711 L 356.5 712 L 355.5 710 Z " /><path fill="rgb(21,62,41)" stroke="rgb(21,62,41)" stroke-width="1" opacity="0.28627450980392155" d="M 362.5 714 L 363.5 716 L 362.5 714 Z " /><path fill="rgb(21,62,41)" stroke="rgb(21,62,41)" stroke-width="1" opacity="0.28627450980392155" d="M 307.5 719 L 308 720.5 L 306 721.5 L 307.5 719 Z " /><path fill="rgb(21,62,41)" stroke="rgb(21,62,41)" stroke-width="1" opacity="0.28627450980392155" d="M 370.5 720 L 371.5 722 L 369 721.5 L 370.5 720 Z " /><path fill="rgb(21,62,41)" stroke="rgb(21,62,41)" stroke-width="1" opacity="0.28627450980392155" d="M 301.5 723 L 302 724.5 L 300 725.5 L 301.5 723 Z " /><path fill="rgb(21,62,41)" stroke="rgb(21,62,41)" stroke-width="1" opacity="0.28627450980392155" d="M 374.5 723 L 375.5 725 L 374.5 723 Z " /><path fill="rgb(21,62,41)" stroke="rgb(21,62,41)" stroke-width="1" opacity="0.28627450980392155" d="M 298.5 725 L 298 726.5 L 296.5 729 L 297 727.5 L 298.5 725 Z " /><path fill="rgb(21,62,41)" stroke="rgb(21,62,41)" stroke-width="1" opacity="0.28627450980392155" d="M 377.5 725 L 378.5 727 L 377.5 725 Z " /><path fill="rgb(21,62,41)" stroke="rgb(21,62,41)" stroke-width="1" opacity="0.28627450980392155" d="M 273.5 728 L 273.5 731 Q 270.5 729.5 273.5 728 Z " /><path fill="rgb(21,62,41)" stroke="rgb(21,62,41)" stroke-width="1" opacity="0.28627450980392155" d="M 294.5 728 L 295 729.5 L 292 730.5 L 289.5 734 L 283.5 738 L 283 736.5 Q 285.5 731.7 288 733.5 L 288.5 732 L 290 732.5 L 292.5 729 L 294 729.5 L 294.5 728 Z " /><path fill="rgb(21,62,41)" stroke="rgb(21,62,41)" stroke-width="1" opacity="0.28627450980392155" d="M 271.5 731 L 270.5 735 Q 267 733 271.5 731 Z " /><path fill="rgb(21,62,41)" stroke="rgb(21,62,41)" stroke-width="1" opacity="0.28627450980392155" d="M 268.5 735 L 267.5 737 L 268.5 735 Z " /><path fill="rgb(21,62,41)" stroke="rgb(21,62,41)" stroke-width="1" opacity="0.28627450980392155" d="M 281.5 737 L 282 738.5 L 268.5 748 L 268 746.5 L 271 745.5 L 273.5 742 L 281.5 737 Z " /><path fill="rgb(21,62,41)" stroke="rgb(21,62,41)" stroke-width="1" opacity="0.28627450980392155" d="M 266.5 738 L 268 738.5 L 265 740.5 L 265.5 742 L 263 743.5 L 261 746.5 L 261.5 748 Q 259.3 747.3 260 749.5 L 258.5 752 L 258 750.5 L 266.5 738 Z " /><path fill="rgb(21,62,41)" stroke="rgb(21,62,41)" stroke-width="1" opacity="0.28627450980392155" d="M 265.5 748 L 266 749.5 Q 264.5 752.5 263 749.5 L 265 749.5 L 265.5 748 Z " /><path fill="rgb(21,62,41)" stroke="rgb(21,62,41)" stroke-width="1" opacity="0.28627450980392155" d="M 457.5 764 L 456.5 766 L 457.5 764 Z " /><path fill="rgb(21,62,41)" stroke="rgb(21,62,41)" stroke-width="1" opacity="0.28627450980392155" d="M 459 765 L 461 765.5 L 459 766.5 L 459 765 Z " /><path fill="rgb(21,62,41)" stroke="rgb(21,62,41)" stroke-width="1" opacity="0.28627450980392155" d="M 470 768 Q 472.7 766.9 472 769.5 L 473.5 769 Q 477.3 768 476 771 L 470 770 L 470 768 Z " /><path fill="rgb(21,62,41)" stroke="rgb(21,62,41)" stroke-width="1" opacity="0.28627450980392155" d="M 478 770 Q 481 769 480 772 Q 477 773 478 770 Z " /><path fill="rgb(21,62,41)" stroke="rgb(21,62,41)" stroke-width="1" opacity="0.28627450980392155" d="M 481 771 L 488 772 Q 489.3 775 485.5 774 L 481 773 L 481 771 Z " /><path fill="rgb(21,62,41)" stroke="rgb(21,62,41)" stroke-width="1" opacity="0.28627450980392155" d="M 491.5 773 L 493 773.5 L 490.5 775 L 491.5 773 Z " /><path fill="rgb(21,62,41)" stroke="rgb(21,62,41)" stroke-width="1" opacity="0.28627450980392155" d="M 499.5 775 Q 504.3 773.7 503 777 Q 498.8 777 499.5 775 Z " /><path fill="rgb(21,62,41)" stroke="rgb(21,62,41)" stroke-width="1" opacity="0.28627450980392155" d="M 506.5 776 L 511 776.5 L 508.5 778 L 506.5 776 Z " /><path fill="rgb(21,62,41)" stroke="rgb(21,62,41)" stroke-width="1" opacity="0.28627450980392155" d="M 517 777 L 522 777.5 L 517 779 L 517 777 Z " /><path fill="rgb(21,62,41)" stroke="rgb(21,62,41)" stroke-width="1" opacity="0.28627450980392155" d="M 529.5 778 L 547.5 779 L 548.5 778 L 565.5 778 L 565.5 779 L 561.5 780 L 533.5 780 L 529.5 779 L 529.5 778 Z " /><path fill="rgb(0,0,0)" stroke="rgb(0,0,0)" stroke-width="1" opacity="0" d="M 0 0 L 1024 0 L 1024 1024 L 0 1024 L 0 0 Z M 512 181 L 511 182 L 495 183 L 494 184 L 485 184 L 472 188 L 462 189 L 443 196 L 439 196 L 418 204 L 412 208 L 407 209 L 386 221 Q 383 220 384 223 L 374 228 L 346 250 L 343 252 L 340 256 L 334 260 L 332 263 L 330 264 L 328 267 L 326 268 L 324 271 L 322 272 L 316 279 Q 317 281 315 280 L 300 299 Q 301 301 299 300 L 276 337 L 268 356 L 266 358 L 263 368 L 261 370 Q 260 379 256 385 L 256 389 L 253 394 L 244 437 L 245 439 L 244 440 L 243 461 L 242 462 L 242 495 Q 244 496 243 501 L 245 504 Q 242 507 244 516 L 244 518 L 246 523 Q 245 527 248 526 L 247 529 L 252 551 L 252 550 L 253 550 L 252 552 Q 251 554 254 553 L 252 556 L 254 561 L 256 560 L 257 565 L 256 567 L 258 566 L 257 568 Q 256 570 259 569 L 258 571 L 259 576 L 261 576 L 260 578 L 262 578 L 261 580 L 262 584 L 264 583 L 263 585 L 265 585 L 264 588 L 266 589 L 264 590 Q 265 592 267 590 L 268 593 L 267 595 L 268 597 L 270 596 L 271 599 L 270 602 L 272 601 L 271 603 L 273 603 L 274 606 L 273 608 L 276 609 L 275 612 L 278 613 L 277 615 L 279 615 L 278 617 L 280 617 L 279 619 L 282 620 L 288 631 L 287 633 Q 288 635 290 633 L 289 635 L 291 635 L 294 640 L 293 642 L 295 641 L 299 648 L 299 650 L 301 650 L 304 655 Q 307 656 305 658 L 307 658 Q 311 660 308 662 L 310 662 L 313 667 L 316 670 L 315 671 L 317 671 L 322 678 L 328 684 L 328 685 Q 331 684 330 687 L 350 705 L 376 725 Q 400 742 429 754 Q 431 753 430 756 L 432 755 L 446 761 Q 449 760 448 763 L 450 762 Q 452 761 451 764 L 453 763 L 453 765 L 455 764 L 458 765 Q 460 764 459 767 L 461 766 L 468 768 Q 471 767 470 770 L 473 769 L 473 771 L 477 770 Q 479 769 478 772 L 481 771 L 481 773 L 486 774 L 491 773 L 491 775 L 493 774 Q 499 774 502 777 L 504 776 L 509 778 L 511 777 Q 518 776 517 779 L 521 778 Q 529 777 534 780 L 562 780 L 566 779 L 568 779 L 587 778 L 607 774 L 631 767 L 635 767 L 640 764 L 649 762 L 659 757 L 664 756 Q 711 734 747 701 Q 765 685 780 666 Q 779 663 782 664 L 808 627 L 823 598 L 829 581 L 831 579 L 844 536 L 844 530 L 848 516 L 848 507 L 852 491 L 852 477 L 850 477 L 834 489 Q 831 488 832 491 L 822 497 L 776 531 L 767 536 L 764 539 L 760 550 L 752 565 L 732 592 Q 733 594 730 593 L 728 598 L 716 611 Q 717 613 715 612 L 712 616 L 708 619 Q 709 621 707 620 L 704 624 L 673 648 L 663 653 L 660 656 L 634 668 L 631 668 L 624 672 L 620 672 L 611 676 L 606 676 L 594 680 L 574 682 L 573 683 L 558 683 L 557 684 L 540 684 L 539 683 L 528 683 L 513 680 L 507 680 L 467 668 L 426 648 L 394 624 Q 391 625 392 622 L 380 612 L 363 594 L 360 592 L 348 576 L 348 574 L 336 556 L 324 529 L 316 503 L 316 498 L 312 484 L 312 475 L 310 466 L 310 453 L 309 452 L 309 439 L 310 438 L 311 417 L 312 416 L 312 405 L 316 392 L 316 387 L 320 376 L 320 371 L 332 341 L 344 319 Q 343 315 346 316 Q 347 310 352 307 Q 351 303 354 304 L 360 294 L 363 292 L 364 290 Q 363 287 366 288 L 372 280 Q 381 267 395 259 L 396 256 L 418 240 L 453 220 L 482 208 L 486 208 L 489 206 L 499 204 L 509 200 L 519 199 L 537 192 L 538 190 L 537 184 L 531 181 L 512 181 Z M 570 181 L 560 183 Q 559 190 562 194 L 617 207 L 648 219 Q 670 230 689 244 L 712 264 L 713 267 L 715 266 L 717 270 Q 716 272 719 271 L 728 282 Q 727 285 731 283 L 731 286 L 737 290 L 737 293 L 743 301 L 746 302 Q 748 303 746 305 L 748 305 Q 750 306 748 308 L 749 310 L 751 309 L 750 311 L 752 311 L 751 313 L 754 314 Q 756 315 754 317 L 756 319 Q 758 318 757 323 L 759 322 L 758 324 L 760 324 L 759 326 L 761 329 Q 760 331 763 330 L 763 333 Q 762 335 765 334 L 767 339 L 766 341 L 768 341 L 767 343 L 769 348 Q 772 349 770 351 L 772 356 Q 771 358 774 357 Q 776 358 774 360 L 799 379 L 803 383 L 804 382 L 806 385 Q 808 384 807 387 L 809 386 Q 813 388 810 390 L 828 403 L 829 406 L 850 420 L 852 420 L 851 406 L 836 371 L 836 368 L 824 343 Q 803 305 775 275 L 773 273 L 771 271 L 750 252 L 748 249 L 732 236 L 707 220 L 678 205 L 661 199 L 659 197 L 634 189 L 624 188 L 611 184 L 603 184 L 595 182 L 583 182 L 582 181 L 570 181 Z M 617 234 L 608 236 L 594 244 Q 585 250 581 261 L 580 273 L 579 274 L 580 289 L 587 303 L 595 310 L 612 317 L 629 316 L 643 308 L 652 299 L 656 291 L 659 279 L 658 265 L 655 257 L 650 250 Q 643 241 633 236 Q 626 237 624 234 L 617 234 Z M 464 276 L 443 282 L 440 284 L 436 284 L 409 296 L 396 304 L 372 323 Q 373 325 371 324 L 368 328 L 364 331 Q 365 333 363 332 L 360 336 L 357 337 L 352 345 Q 351 350 354 351 L 369 347 L 375 344 L 379 344 L 391 339 L 430 331 L 432 331 L 434 332 L 435 331 L 447 331 L 448 330 L 472 331 L 476 331 L 497 336 L 504 340 L 496 351 L 498 352 Q 502 351 504 353 L 512 353 L 513 352 L 529 352 L 532 353 L 555 372 L 560 383 Q 562 389 559 391 L 559 399 L 560 400 L 558 413 L 556 415 L 442 415 L 441 416 L 411 416 L 405 422 L 406 424 L 406 425 L 405 424 L 404 424 L 405 433 L 414 438 L 416 438 L 420 439 L 564 439 L 592 415 Q 591 411 594 412 L 600 401 L 602 391 L 602 384 L 603 383 L 603 363 L 599 347 L 594 337 L 580 318 L 578 316 L 576 314 L 574 312 L 572 310 L 570 308 L 568 305 L 566 304 Q 563 305 564 303 L 541 289 L 535 288 L 526 284 L 521 284 L 510 280 L 505 280 L 491 276 L 464 276 Z M 723 314 L 721 315 L 711 328 Q 712 330 709 329 Q 698 353 680 372 L 678 375 L 655 397 L 650 399 L 635 383 Q 636 380 634 381 L 630 376 Q 627 377 628 375 L 622 369 L 620 371 L 620 391 Q 616 396 616 405 L 611 414 L 612 416 Q 611 418 610 416 L 608 419 L 610 419 Q 608 423 607 420 L 605 423 L 607 423 L 598 433 L 601 435 L 612 440 L 611 442 L 613 442 L 615 442 L 615 444 L 617 443 L 617 445 L 621 446 L 623 445 L 622 447 L 624 447 L 625 446 Q 626 449 628 448 Q 627 450 630 449 L 634 449 Q 636 448 635 451 L 638 450 L 641 452 L 654 452 L 654 451 L 656 451 L 663 450 L 667 448 L 666 447 L 668 447 L 677 442 L 693 426 L 712 398 L 724 369 L 728 347 L 728 320 L 727 317 L 723 314 Z M 747 364 L 745 366 L 745 409 L 746 410 L 746 420 L 748 428 L 748 435 L 751 447 L 750 494 L 749 495 L 748 509 L 744 520 L 743 528 L 746 528 L 755 523 L 795 495 L 796 492 L 823 475 L 854 452 L 856 449 L 855 446 L 843 436 L 835 432 L 811 412 Q 807 413 808 410 L 798 403 Q 795 404 796 401 L 793 400 L 791 397 L 747 364 Z M 354 371 L 343 373 L 337 382 L 340 390 L 350 395 L 371 395 L 379 391 L 383 386 Q 384 380 381 378 L 376 372 L 371 371 L 354 371 Z M 419 371 L 412 373 L 408 379 Q 407 386 410 389 Q 414 393 421 395 L 539 395 Q 547 393 552 387 L 551 378 L 546 372 Q 541 373 540 371 L 419 371 Z M 337 416 L 334 417 L 332 424 Q 335 425 331 427 L 333 429 L 332 431 L 333 434 Q 337 438 344 439 L 346 439 Q 351 441 353 438 L 355 439 L 356 438 L 364 438 L 364 436 L 366 437 L 369 436 L 368 435 Q 369 432 371 434 L 375 428 L 371 420 Q 370 417 369 419 L 369 418 L 367 416 L 337 416 Z M 558 457 L 557 458 L 542 458 L 541 459 L 451 459 L 450 460 L 420 461 L 422 462 L 417 463 L 414 467 L 413 466 Q 409 468 410 474 L 412 474 L 411 477 L 412 479 L 415 479 L 421 483 L 502 483 L 505 482 L 523 482 L 526 484 L 542 484 L 543 485 Q 545 484 544 487 L 552 492 L 557 503 L 556 504 L 519 505 L 537 505 L 537 506 L 433 506 L 430 504 Q 422 503 417 505 L 412 515 L 411 520 L 406 526 L 406 528 L 412 529 L 430 529 L 431 528 L 460 528 L 462 530 L 486 530 L 488 528 L 515 528 L 516 529 Q 524 530 524 527 L 536 527 L 539 528 L 542 526 L 562 530 L 576 535 L 584 536 L 586 539 L 570 556 L 570 554 Q 567 553 568 556 L 568 558 Q 566 562 565 559 Q 562 560 564 562 L 563 561 L 561 565 Q 557 564 558 567 L 558 569 L 557 568 Q 554 569 556 571 L 555 570 L 548 578 L 551 577 L 541 587 L 539 587 L 538 591 L 537 590 L 535 591 L 536 593 L 501 629 Q 502 631 500 630 L 482 650 L 488 653 L 501 657 L 502 659 L 505 658 Q 506 654 508 657 L 508 656 Q 510 651 512 654 L 514 654 L 512 653 L 514 652 L 516 652 L 516 651 L 518 651 L 518 650 L 525 645 L 527 646 L 526 645 L 528 645 L 578 615 L 642 572 L 653 560 L 660 544 L 660 524 L 659 520 L 652 505 L 647 497 L 624 481 L 601 468 L 588 464 L 581 460 L 566 457 L 558 457 Z M 341 460 L 342 462 L 337 464 L 337 466 L 335 466 L 336 474 L 336 476 L 338 476 L 341 481 L 343 480 Q 345 479 344 482 L 346 481 L 374 481 L 375 482 L 378 481 L 380 477 L 384 476 L 383 473 L 384 469 L 381 468 L 382 466 Q 380 461 379 464 L 379 463 L 377 461 L 377 463 L 376 462 L 363 462 L 366 461 L 341 460 Z M 369 460 L 369 461 L 373 461 L 369 460 Z M 509 483 L 509 484 L 513 484 L 509 483 Z M 361 504 L 356 506 L 354 505 L 346 506 L 348 507 L 346 507 L 343 511 L 344 520 L 344 522 L 351 526 L 351 528 L 353 527 L 361 527 L 362 528 L 371 528 L 371 527 L 373 527 Q 381 526 384 520 Q 385 513 382 511 L 375 505 L 362 505 L 361 504 Z M 346 523 Q 344 526 347 525 L 346 523 Z M 577 545 L 577 547 L 579 546 L 577 545 Z M 388 548 L 387 549 L 367 550 L 360 554 Q 362 562 367 567 Q 366 569 369 568 L 369 570 L 371 570 L 390 592 L 411 610 Q 413 609 412 612 L 426 622 L 428 622 L 438 612 Q 440 613 439 611 L 448 602 L 449 603 L 450 601 L 463 588 L 464 589 Q 463 585 466 586 L 474 578 L 475 579 L 480 575 Q 482 574 480 573 L 482 573 Q 484 572 482 571 L 484 571 L 499 558 Q 498 555 501 556 Q 503 555 501 554 L 505 551 L 504 548 Q 496 547 492 550 L 487 549 L 484 550 L 476 550 L 475 549 L 457 549 L 456 550 L 414 550 L 406 548 L 398 548 L 397 549 L 389 549 L 388 548 Z M 526 599 L 526 601 L 528 600 L 526 599 Z M 524 602 L 521 606 L 525 603 L 524 602 Z M 306 692 L 297 701 Q 295 699 294 702 L 296 703 L 287 714 Q 286 716 285 714 Q 282 715 284 717 L 283 716 L 281 719 L 283 719 L 270 736 L 267 738 Q 264 739 266 741 L 264 741 L 265 743 L 262 744 L 263 746 L 260 747 L 261 749 L 259 749 L 261 752 L 264 750 L 266 750 L 266 749 Q 267 746 269 748 L 271 747 L 270 746 L 272 746 L 274 745 L 273 744 L 275 744 L 281 740 L 282 738 L 284 738 L 286 737 L 288 733 L 290 734 L 289 733 L 291 733 L 292 731 Q 293 728 295 730 L 295 729 Q 296 726 298 728 L 298 727 Q 300 722 302 725 L 302 724 L 305 722 Q 306 718 308 721 L 308 720 L 314 716 L 316 716 L 316 715 L 319 714 Q 318 710 322 712 L 324 709 L 324 706 L 323 706 L 322 703 L 320 704 L 308 692 L 306 692 Z M 291 704 L 291 706 L 293 705 L 291 704 Z " /><path fill="rgb(0,0,0)" stroke="rgb(0,0,0)" stroke-width="1" opacity="0" d="M 540.5 505 L 545 505.5 L 540.5 506 L 540.5 505 Z " /><path fill="rgb(0,0,0)" stroke="rgb(0,0,0)" stroke-width="1" opacity="0" d="M 362.5 506 L 373 506.5 L 362.5 507 L 362.5 506 Z " /><path fill="rgb(53,142,97)" stroke="rgb(53,142,97)" stroke-width="1" opacity="0.9725490196078431" d="M 509.5 182 L 530.5 182 L 537 186.5 Q 537.8 190.3 535.5 191 L 517.5 198 L 497.5 202 L 475.5 209 L 440.5 225 Q 398.3 247.8 368 282.5 L 342 318.5 Q 328.3 342.8 319 371.5 L 312 400.5 L 312 406.5 L 310 414.5 L 310 423.5 L 309 424.5 L 309 465.5 L 310 466.5 L 312 487.5 L 319 516.5 Q 327.2 542.8 340 564.5 Q 359.9 597.6 388.5 622 L 425.5 649 L 448.5 661 L 467.5 669 L 491.5 677 L 513.5 682 L 529.5 683 L 530.5 684 L 569.5 684 L 570.5 683 L 587.5 682 L 609.5 677 Q 631 671 649.5 662 Q 689.9 641.4 719 609.5 L 748 572.5 Q 758.3 557.8 765 539.5 L 769.5 535 L 778.5 530 L 850.5 478 Q 853.2 479.3 851 480.5 L 850 495.5 L 848 501.5 L 846 520.5 L 841 543.5 Q 832 577 818 605.5 Q 790.2 660.2 746.5 699 Q 709.3 733.8 659.5 756 L 624.5 768 L 588.5 776 L 572.5 777 L 571.5 778 L 548.5 778 Q 547.3 780.3 542.5 779 L 541.5 778 L 522.5 778 L 521.5 777 L 511.5 777 L 510.5 776 L 497.5 775 L 454.5 764 L 433.5 756 L 407.5 744 L 380.5 728 L 335 691.5 L 333.5 689 Q 331.3 689.8 332 687.5 Q 309.2 663.8 291 635.5 L 276 609.5 L 260 573.5 L 251 542.5 L 246 516.5 L 245 498.5 L 244 497.5 L 244 458.5 L 245 457.5 L 245 445.5 L 246 444.5 L 248 424.5 L 255 393.5 Q 262 369.4 272 348.5 Q 285 321 302 297.5 Q 318 276 337.5 258 Q 371.3 226.8 415.5 206 L 438.5 197 L 458.5 191 L 479.5 186 L 484.5 186 L 491.5 184 L 499.5 184 L 500.5 183 L 508.5 183 L 509.5 182 Z " /><path fill="rgb(53,142,97)" stroke="rgb(53,142,97)" stroke-width="1" opacity="0.9725490196078431" d="M 570.5 182 L 596.5 183 L 629.5 189 Q 657.7 196.3 681.5 208 Q 708.9 221.1 732.5 238 Q 759.2 258.8 782 283.5 Q 803.8 309.2 821 339.5 L 833 363.5 L 849 404.5 L 851 411.5 L 851 418 L 829.5 404 L 774 357.5 L 767 338.5 L 757 318.5 L 746 301.5 Q 726.5 275.5 702.5 254 Q 677.2 232.8 646.5 217 L 620.5 207 L 595.5 200 L 591.5 200 L 587.5 198 L 566.5 194 L 562 190.5 L 561 185.5 L 563.5 183 Q 569 184.5 570.5 182 Z " /><path fill="rgb(53,142,97)" stroke="rgb(53,142,97)" stroke-width="1" opacity="0.9725490196078431" d="M 614.5 235 L 624.5 235 L 634.5 238 L 646 246 L 656 261.5 L 658 269.5 L 658 278.5 L 654 292.5 L 644.5 305 Q 634 315.5 613.5 316 Q 597.8 312.8 589 302.5 Q 583 295.5 581 284.5 L 581 266.5 L 585 255.5 L 591 247 Q 600.3 238.9 614.5 235 Z " /><path fill="rgb(53,142,97)" stroke="rgb(53,142,97)" stroke-width="1" opacity="0.9725490196078431" d="M 464.5 277 L 489.5 277 Q 491 279.5 496.5 278 L 540.5 290 Q 565.5 300.5 581 320.5 Q 592.4 332.6 599 349.5 L 602 362.5 L 602 382.5 L 599 399.5 Q 595.1 410.1 587.5 417 L 564.5 437 L 414.5 437 Q 408.4 435.6 406 430.5 L 406 423.5 L 409.5 419 L 413.5 417 L 554.5 417 L 559 414.5 Q 562.3 407.3 561 395.5 L 560 390.5 Q 562.7 388.8 561 382.5 Q 558.4 371.1 549.5 366 L 535.5 353 L 530.5 351 L 498 350.5 L 506 340.5 L 506 338.5 L 501.5 336 L 478.5 330 L 450.5 328 L 449.5 329 L 425.5 330 L 408.5 333 L 388.5 338 L 354.5 349 L 353 346.5 L 369.5 327 Q 371.8 327.8 371 325.5 Q 386.7 310.7 405.5 299 L 436.5 285 L 464.5 277 Z " /><path fill="rgb(53,142,97)" stroke="rgb(53,142,97)" stroke-width="1" opacity="0.9725490196078431" d="M 721.5 316 Q 725.3 315.3 726 317.5 L 728 325.5 L 728 333.5 L 727 334.5 L 727 345.5 L 726 346.5 L 725 360.5 L 717 384.5 Q 702.9 416.4 678.5 438 Q 667.2 450.2 644.5 451 L 621.5 445 L 601.5 435 L 599 432.5 L 600.5 429 L 606 424.5 L 616 409.5 L 621 392.5 L 622 382.5 L 621 379.5 L 622 378.5 L 622 372 L 626 374.5 L 649.5 400 Q 654.1 400.6 655.5 398 L 677 377.5 L 697 352.5 Q 707.1 332.1 721.5 316 Z " /><path fill="rgb(53,142,97)" stroke="rgb(53,142,97)" stroke-width="1" opacity="0.9725490196078431" d="M 747.5 366 Q 771.9 381.6 792.5 401 L 815.5 417 L 830.5 430 L 854 446.5 Q 854.8 451.3 851.5 452 L 759.5 518 L 744 526 L 748 512.5 L 751 496.5 L 752 445.5 L 749 433.5 L 749 427.5 L 747 420.5 L 747 408.5 L 746 407.5 L 746 367.5 L 747.5 366 Z " /><path fill="rgb(53,142,97)" stroke="rgb(53,142,97)" stroke-width="1" opacity="0.9725490196078431" d="M 424.5 372 Q 430 370.5 431.5 373 L 432.5 372 L 538.5 372 L 545.5 374 L 549 377.5 Q 551.7 379.8 551 385.5 Q 546.8 390.8 539.5 393 L 418.5 393 L 411 386.5 L 410 378.5 L 415.5 373 L 423.5 373 L 424.5 372 Z " /><path fill="rgb(53,142,97)" stroke="rgb(53,142,97)" stroke-width="1" opacity="0.9725490196078431" d="M 347.5 373 L 373.5 373 L 379 377.5 L 381 384.5 L 374.5 392 L 371.5 393 L 348.5 393 L 341 387.5 L 339 382.5 L 344.5 374 L 347.5 373 Z " /><path fill="rgb(53,142,97)" stroke="rgb(53,142,97)" stroke-width="1" opacity="0.9725490196078431" d="M 338.5 417 L 364.5 417 L 369 419 L 373 427.5 L 369.5 433 L 365.5 436 L 360.5 437 L 342.5 437 Q 336.8 435.8 334 431.5 L 333 423.5 L 336.5 418 L 338.5 417 Z " /><path fill="rgb(53,142,97)" stroke="rgb(53,142,97)" stroke-width="1" opacity="0.9725490196078431" d="M 557.5 458 L 572.5 459 L 593.5 466 Q 623.7 479.3 647 499.5 L 652 506.5 L 658 519.5 L 660 534.5 Q 657.3 536.3 659 542.5 L 653 557.5 L 640.5 571 L 605.5 595 L 533.5 640 L 506.5 656 L 499.5 657 L 482 650 L 482 648.5 L 540.5 587 L 543 585.5 L 544.5 583 L 547 581.5 L 565.5 560 Q 567.8 560.8 567 558.5 L 586 539.5 L 587 536.5 L 583.5 534 L 569.5 532 L 555.5 527 L 550.5 526 L 534.5 526 L 533.5 527 L 515.5 527 L 514.5 528 L 424.5 528 L 423.5 527 L 407 526.5 L 418.5 507 Q 424 508.5 425.5 506 L 551.5 506 L 558 503.5 L 554 492 L 546 485.5 Q 546.8 483.3 544.5 484 L 540.5 482 L 440.5 482 L 439.5 483 L 422.5 483 L 418.5 482 L 413 476.5 L 411 471.5 L 418.5 462 Q 424.7 463.7 426.5 461 L 531.5 461 L 532.5 460 L 556.5 459 L 557.5 458 Z " /><path fill="rgb(53,142,97)" stroke="rgb(53,142,97)" stroke-width="1" opacity="0.9725490196078431" d="M 340.5 462 L 374.5 462 L 381 467.5 L 383 472.5 L 376.5 480 L 373.5 481 L 345.5 481 Q 339.4 479.6 337 474.5 L 336 467.5 L 340.5 462 Z " /><path fill="rgb(53,142,97)" stroke="rgb(53,142,97)" stroke-width="1" opacity="0.9725490196078431" d="M 350.5 506 L 374.5 507 L 381 512.5 L 382 518.5 L 381 521 L 372.5 526 L 352.5 527 L 347 523.5 L 343 515.5 L 343 510.5 L 345.5 507 L 350.5 506 Z " /><path fill="rgb(53,142,97)" stroke="rgb(53,142,97)" stroke-width="1" opacity="0.9725490196078431" d="M 392.5 550 L 407.5 551 L 408.5 550 L 503.5 550 L 502.5 552 Q 500.3 551.3 501 553.5 L 494 558 L 492.5 561 L 490 562.5 Q 490.8 564.8 488.5 564 L 428 620.5 Q 428.8 622.8 426.5 622 L 403 603.5 Q 403.8 601.3 401.5 602 L 377.5 576 L 373 572.5 L 362 556.5 L 362 553.5 L 366.5 551 L 391.5 551 L 392.5 550 Z " /><path fill="rgb(53,142,97)" stroke="rgb(53,142,97)" stroke-width="1" opacity="0.9725490196078431" d="M 306.5 692 L 309 693 Q 307.9 695.7 310.5 695 L 313 699 L 324 707.5 Q 324.8 709.8 322.5 709 L 260.5 752 L 260 749.5 Q 279.8 718.8 304.5 693 L 306.5 692 Z " /></svg>
